<svg width="394" height="102" viewBox="0 0 394 102" fill="none" xmlns="http://www.w3.org/2000/svg">
<path d="M71.9069 91.784V101H0.626939V0.199993H69.7469V9.41599H11.2829V45.272H63.4109V54.344H11.2829V91.784H71.9069ZM156.896 25.256L123.2 101H112.688L79.1362 25.256H89.7922L118.16 89.768L146.816 25.256H156.896ZM235.138 66.296H171.778C172.354 74.168 175.378 80.552 180.85 85.448C186.322 90.248 193.234 92.648 201.586 92.648C206.29 92.648 210.61 91.832 214.546 90.2C218.482 88.472 221.89 85.976 224.77 82.712L230.53 89.336C227.17 93.368 222.946 96.44 217.858 98.552C212.866 100.664 207.346 101.72 201.298 101.72C193.522 101.72 186.61 100.088 180.562 96.824C174.61 93.464 169.954 88.856 166.594 83C163.234 77.144 161.554 70.52 161.554 63.128C161.554 55.736 163.138 49.112 166.306 43.256C169.57 37.4 173.986 32.84 179.554 29.576C185.218 26.312 191.554 24.68 198.562 24.68C205.57 24.68 211.858 26.312 217.426 29.576C222.994 32.84 227.362 37.4 230.53 43.256C233.698 49.016 235.282 55.64 235.282 63.128L235.138 66.296ZM198.562 33.464C191.266 33.464 185.122 35.816 180.13 40.52C175.234 45.128 172.45 51.176 171.778 58.664H225.49C224.818 51.176 221.986 45.128 216.994 40.52C212.098 35.816 205.954 33.464 198.562 33.464ZM294.684 24.68C304.188 24.68 311.724 27.464 317.292 33.032C322.956 38.504 325.788 46.52 325.788 57.08V101H315.564V58.088C315.564 50.216 313.596 44.216 309.66 40.088C305.724 35.96 300.108 33.896 292.812 33.896C284.652 33.896 278.172 36.344 273.372 41.24C268.668 46.04 266.316 52.712 266.316 61.256V101H256.092V25.256H265.884V39.224C268.668 34.616 272.508 31.064 277.404 28.568C282.396 25.976 288.156 24.68 294.684 24.68ZM393.433 96.392C391.513 98.12 389.113 99.464 386.233 100.424C383.449 101.288 380.521 101.72 377.449 101.72C370.345 101.72 364.873 99.8 361.033 95.96C357.193 92.12 355.273 86.696 355.273 79.688V33.896H341.737V25.256H355.273V8.696H365.497V25.256H388.537V33.896H365.497V79.112C365.497 83.624 366.601 87.08 368.809 89.48C371.113 91.784 374.377 92.936 378.601 92.936C380.713 92.936 382.729 92.6 384.649 91.928C386.665 91.256 388.393 90.296 389.833 89.048L393.433 96.392Z" fill="white"/>
</svg>
